<svg width="41" height="42" viewBox="0 0 41 42" fill="none" xmlns="http://www.w3.org/2000/svg">
<g clip-path="url(#clip0_565_362)">
<path d="M1.70898 1.75H8.54232L13.1207 25.1825C13.2769 25.9882 13.7047 26.7119 14.3294 27.227C14.954 27.7421 15.7356 28.0157 16.5373 28H33.1423C33.944 28.0157 34.7256 27.7421 35.3503 27.227C35.9749 26.7119 36.4028 25.9882 36.559 25.1825L39.2923 10.5H10.2507M17.084 36.75C17.084 37.7165 16.3191 38.5 15.3757 38.5C14.4322 38.5 13.6673 37.7165 13.6673 36.75C13.6673 35.7835 14.4322 35 15.3757 35C16.3191 35 17.084 35.7835 17.084 36.75ZM35.8757 36.75C35.8757 37.7165 35.1108 38.5 34.1673 38.5C33.2238 38.5 32.459 37.7165 32.459 36.75C32.459 35.7835 33.2238 35 34.1673 35C35.1108 35 35.8757 35.7835 35.8757 36.75Z" stroke="#1E1E1E" stroke-width="4" stroke-linecap="round" stroke-linejoin="round"/>
</g>
<defs>
<clipPath id="clip0_565_362">
<rect width="41" height="42" fill="white"/>
</clipPath>
</defs>
</svg>
